<svg xmlns="http://www.w3.org/2000/svg" xmlns:xlink="http://www.w3.org/1999/xlink" width="238.768" height="77.943" viewBox="0 0 238.768 77.943">
  <defs>
    <clipPath id="clip-path">
      <rect width="238.768" height="77.943" fill="none"/>
    </clipPath>
  </defs>
  <g id="Repeat_Grid_1" data-name="Repeat Grid 1" clip-path="url(#clip-path)">
    <g id="Group_59" data-name="Group 59">
      <path id="Path_95" data-name="Path 95" d="M240.791,16.908H19.709c-4.864,0-8.843-4.384-8.843-9.743V-51.292c0-5.359,3.979-9.743,8.843-9.743H240.791c4.864,0,8.843,4.384,8.843,9.743V7.164C249.634,12.523,245.654,16.908,240.791,16.908Z" transform="translate(-10.866 61.035)" fill="#fff"/>
      <g id="Group_7" data-name="Group 7" transform="translate(16.295 12.49)">
        <path id="Path_3" data-name="Path 3" d="M51.856-34.006a10.626,10.626,0,0,1,5.065-8.916,10.875,10.875,0,0,0-8.573-4.634c-3.606-.38-7.1,2.156-8.941,2.156-1.873,0-4.7-2.119-7.748-2.057A11.423,11.423,0,0,0,22.051-41.6C17.9-34.408,21-23.84,24.976-18.027c1.99,2.848,4.316,6.031,7.356,5.911,2.98-.122,4.093-1.9,7.69-1.9,3.562,0,4.606,1.9,7.711,1.829,3.2-.051,5.21-2.86,7.131-5.732a23.657,23.657,0,0,0,3.256-6.643,10.272,10.272,0,0,1-6.272-9.448" transform="translate(-20.079 58.875)"/>
        <path id="Path_4" data-name="Path 4" d="M37.758-46.476a10.459,10.459,0,0,0,2.395-7.5,10.66,10.66,0,0,0-6.892,3.562,9.958,9.958,0,0,0-2.451,7.22,8.8,8.8,0,0,0,6.951-3.286" transform="translate(-11.848 53.973)"/>
        <path id="Path_5" data-name="Path 5" d="M65.323-23.308H55.547L53.2-16.379H49.058l9.261-25.645h4.3l9.259,25.645H67.67Zm-8.764-3.2h7.748L60.482-37.762h-.1Z" transform="translate(2.195 63.158)"/>
        <path id="Path_6" data-name="Path 6" d="M80.922-28.659c0,5.808-3.111,9.544-7.8,9.544a6.34,6.34,0,0,1-5.884-3.272h-.088v9.261H63.308V-38.01h3.716V-34.9h.071a6.632,6.632,0,0,1,5.953-3.307c4.745,0,7.872,3.751,7.872,9.545m-3.944,0c0-3.785-1.956-6.272-4.945-6.272-2.932,0-4.9,2.54-4.9,6.272,0,3.767,1.972,6.291,4.9,6.291,2.985,0,4.945-2.471,4.945-6.291" transform="translate(13.148 66.089)"/>
        <path id="Path_7" data-name="Path 7" d="M92.555-28.659c0,5.808-3.113,9.544-7.805,9.544a6.34,6.34,0,0,1-5.884-3.272h-.09v9.261H74.948V-38.01h3.714V-34.9h.071a6.632,6.632,0,0,1,5.953-3.307c4.745,0,7.876,3.751,7.876,9.545m-3.948,0c0-3.785-1.956-6.272-4.945-6.272-2.932,0-4.9,2.54-4.9,6.272,0,3.767,1.972,6.291,4.9,6.291,2.987,0,4.945-2.471,4.945-6.291" transform="translate(22.095 66.089)"/>
        <path id="Path_8" data-name="Path 8" d="M94.3-23.341c.285,2.542,2.756,4.215,6.134,4.215,3.233,0,5.561-1.671,5.561-3.964,0-1.991-1.4-3.182-4.728-4l-3.322-.8c-4.71-1.139-6.9-3.339-6.9-6.915,0-4.423,3.859-7.464,9.33-7.464,5.426,0,9.137,3.04,9.262,7.464h-3.877c-.233-2.559-2.349-4.1-5.44-4.1s-5.205,1.567-5.205,3.836c0,1.809,1.349,2.881,4.655,3.7l2.826.693c5.26,1.247,7.446,3.359,7.446,7.115,0,4.8-3.82,7.8-9.9,7.8-5.688,0-9.528-2.936-9.775-7.573Z" transform="translate(33.95 62.971)"/>
        <path id="Path_9" data-name="Path 9" d="M109.04-40.6v4.425H112.6v3.039H109.04v10.308c0,1.6.713,2.347,2.276,2.347a12.052,12.052,0,0,0,1.261-.088v3.021a10.376,10.376,0,0,1-2.131.177c-3.785,0-5.264-1.42-5.264-5.046V-33.135h-2.718v-3.039h2.718V-40.6Z" transform="translate(43.246 64.253)"/>
        <path id="Path_10" data-name="Path 10" d="M109.356-28.647c0-5.884,3.463-9.581,8.868-9.581s8.87,3.7,8.87,9.581-3.431,9.581-8.87,9.581-8.868-3.682-8.868-9.581m13.827,0c0-4.034-1.85-6.417-4.959-6.417s-4.961,2.4-4.961,6.417c0,4.052,1.85,6.415,4.961,6.415s4.959-2.363,4.959-6.415" transform="translate(48.543 66.075)"/>
        <path id="Path_11" data-name="Path 11" d="M121.174-38.012h3.658v3.184h.088a4.462,4.462,0,0,1,4.5-3.376,5.882,5.882,0,0,1,1.316.143v3.59a5.323,5.323,0,0,0-1.724-.232,3.859,3.859,0,0,0-4.02,3.691V-31a3.708,3.708,0,0,0,.018.594v11.095h-3.834Z" transform="translate(57.627 66.091)"/>
        <path id="Path_12" data-name="Path 12" d="M143.913-24.79c-.516,3.394-3.82,5.723-8.049,5.723-5.44,0-8.817-3.645-8.817-9.491,0-5.867,3.394-9.671,8.654-9.671,5.175,0,8.428,3.555,8.428,9.224v1.316h-13.2v.232a4.868,4.868,0,0,0,4.418,5.281h0a4.983,4.983,0,0,0,.608.016,4.23,4.23,0,0,0,4.319-2.63ZM130.94-30.37H140.3a4.5,4.5,0,0,0-4.239-4.74h0c-.12-.005-.232-.009-.345-.005a4.73,4.73,0,0,0-4.761,4.7v0Z" transform="translate(62.141 66.075)"/>
        <path id="Path_13" data-name="Path 13" d="M50.509-40.617V-52.941h4.954c2.315,0,3.707,1.178,3.707,3.074a2.7,2.7,0,0,1-2.16,2.653v.145a2.915,2.915,0,0,1,2.773,2.962c0,2.17-1.579,3.5-4.211,3.5Zm1.915-7.106H54.7c1.687,0,2.57-.623,2.57-1.792,0-1.137-.828-1.809-2.246-1.809h-2.6ZM55.2-42.241c1.723,0,2.635-.7,2.635-2.007,0-1.289-.948-1.965-2.748-1.965H52.432v3.969Z" transform="translate(3.31 54.766)"/>
        <path id="Path_14" data-name="Path 14" d="M56.866-44.48c0-1.675,1.247-2.641,3.459-2.773l2.52-.149v-.8c0-.983-.649-1.54-1.9-1.54-1.024,0-1.735.378-1.937,1.036H57.225c.189-1.6,1.689-2.625,3.8-2.625,2.331,0,3.647,1.16,3.647,3.129v6.353H62.9v-1.307h-.145a3.132,3.132,0,0,1-2.793,1.466,2.807,2.807,0,0,1-3.083-2.5V-44.2a2.444,2.444,0,0,1-.018-.279m5.98-.794v-.776l-2.273.145c-1.281.085-1.861.52-1.861,1.339,0,.845.723,1.326,1.724,1.326a2.189,2.189,0,0,0,2.4-1.958v0Z" transform="translate(8.197 56.001)"/>
        <path id="Path_15" data-name="Path 15" d="M62.771-52.238A1.188,1.188,0,0,1,63.887-53.5a1.189,1.189,0,0,1,1.258,1.116,1.189,1.189,0,0,1-1.116,1.258h-.071a1.129,1.129,0,0,1-1.185-1.072h0v-.048m.272,2.752h1.831v9.3H63.049Z" transform="translate(12.734 54.339)"/>
        <path id="Path_16" data-name="Path 16" d="M69.29-45.227l-2.032,3.3H65.242l3.085-4.629-3.111-4.673H67.36l2,3.281h.149l1.977-3.281h2.045l-3.067,4.595,3.1,4.7H71.451l-2.025-3.3Z" transform="translate(14.614 56.08)"/>
        <path id="Path_17" data-name="Path 17" d="M70.849-44.48c0-1.675,1.247-2.641,3.459-2.773l2.519-.149v-.8c0-.983-.649-1.54-1.9-1.54-1.024,0-1.737.378-1.937,1.036H71.208c.187-1.6,1.687-2.625,3.8-2.625,2.331,0,3.647,1.16,3.647,3.129v6.353H76.887v-1.307h-.145a3.129,3.129,0,0,1-2.793,1.466,2.807,2.807,0,0,1-3.085-2.5l0-.012a2.434,2.434,0,0,1-.016-.278m5.98-.8v-.776l-2.273.145c-1.28.085-1.861.522-1.861,1.341,0,.844.723,1.326,1.724,1.326a2.192,2.192,0,0,0,2.4-1.958v0Z" transform="translate(18.943 56.001)"/>
        <path id="Path_18" data-name="Path 18" d="M76.887-51.161h1.765v1.426h.138A2.525,2.525,0,0,1,81.3-51.317a3.959,3.959,0,0,1,.817.076v1.809a5.23,5.23,0,0,0-1.024-.11,2.179,2.179,0,0,0-2.365,1.974h0c-.005.071-.007.14-.007.212v5.492H76.887Z" transform="translate(23.586 56.011)"/>
        <path id="Path_19" data-name="Path 19" d="M83.845-51.149h1.769v1.475h.14a2.783,2.783,0,0,1,2.773-1.655,3.023,3.023,0,0,1,3.24,2.791,2.819,2.819,0,0,1-.023.669v6.02H89.911v-5.559c0-1.5-.651-2.237-2.007-2.237a2.133,2.133,0,0,0-2.232,2.029v0a2,2,0,0,0,.011.325v5.44H83.845Z" transform="translate(28.934 55.998)"/>
        <path id="Path_20" data-name="Path 20" d="M89.617-44.48c0-1.675,1.247-2.641,3.459-2.773L95.6-47.4v-.8c0-.983-.649-1.54-1.9-1.54-1.024,0-1.735.378-1.937,1.036H89.976c.189-1.6,1.689-2.625,3.8-2.625,2.331,0,3.647,1.16,3.647,3.129v6.353H95.655v-1.307H95.51a3.136,3.136,0,0,1-2.793,1.466,2.807,2.807,0,0,1-3.085-2.5l0-.005c-.009-.092-.014-.186-.014-.279m5.98-.794v-.776l-2.273.145c-1.281.085-1.861.52-1.861,1.339,0,.845.723,1.326,1.724,1.326a2.187,2.187,0,0,0,2.4-1.953V-45.2a.483.483,0,0,1,.009-.071" transform="translate(33.371 56.001)"/>
      </g>
    </g>
  </g>
</svg>
