<svg id="Group_58" data-name="Group 58" xmlns="http://www.w3.org/2000/svg" xmlns:xlink="http://www.w3.org/1999/xlink" width="238.768" height="77.943" viewBox="0 0 238.768 77.943">
  <defs>
    <linearGradient id="linear-gradient" x1="0.915" y1="16.073" x2="-0.383" y2="15.404" gradientUnits="objectBoundingBox">
      <stop offset="0" stop-color="#00a0ff"/>
      <stop offset="0.007" stop-color="#00a1ff"/>
      <stop offset="0.26" stop-color="#00beff"/>
      <stop offset="0.512" stop-color="#00d2ff"/>
      <stop offset="0.76" stop-color="#00dfff"/>
      <stop offset="1" stop-color="#00e3ff"/>
    </linearGradient>
    <linearGradient id="linear-gradient-2" x1="1.076" y1="44.822" x2="-1.305" y2="44.822" gradientUnits="objectBoundingBox">
      <stop offset="0" stop-color="#ffe000"/>
      <stop offset="0.409" stop-color="#ffbd00"/>
      <stop offset="0.775" stop-color="orange"/>
      <stop offset="1" stop-color="#ff9c00"/>
    </linearGradient>
    <linearGradient id="linear-gradient-3" x1="0.862" y1="29.301" x2="-0.501" y2="27.532" gradientUnits="objectBoundingBox">
      <stop offset="0" stop-color="#ff3a44"/>
      <stop offset="1" stop-color="#c31162"/>
    </linearGradient>
    <linearGradient id="linear-gradient-4" x1="-0.188" y1="32.023" x2="0.421" y2="31.232" gradientUnits="objectBoundingBox">
      <stop offset="0" stop-color="#32a071"/>
      <stop offset="0.068" stop-color="#2da771"/>
      <stop offset="0.476" stop-color="#15cf74"/>
      <stop offset="0.801" stop-color="#06e775"/>
      <stop offset="1" stop-color="#00f076"/>
    </linearGradient>
  </defs>
  <path id="Path_73" data-name="Path 73" d="M240.747-32.891H19.665c-4.864,0-8.843-4.384-8.843-9.743v-58.456c0-5.359,3.979-9.743,8.843-9.743H240.747c4.864,0,8.843,4.384,8.843,9.743v58.456C249.59-37.276,245.61-32.891,240.747-32.891Z" transform="translate(-10.822 110.834)" fill="#fff"/>
  <g id="Group_57" data-name="Group 57" transform="translate(17.637 13.663)">
    <path id="Path_74" data-name="Path 74" d="M99.785-83.2a7.415,7.415,0,0,0-7.552,7.522,7.432,7.432,0,0,0,7.552,7.522,7.431,7.431,0,0,0,7.55-7.522A7.414,7.414,0,0,0,99.785-83.2Zm0,12.082a4.352,4.352,0,0,1-4.247-4.56,4.334,4.334,0,0,1,4.247-4.558,4.334,4.334,0,0,1,4.245,4.558A4.352,4.352,0,0,1,99.785-71.118ZM83.311-83.2a7.414,7.414,0,0,0-7.55,7.522,7.431,7.431,0,0,0,7.55,7.522,7.431,7.431,0,0,0,7.55-7.522A7.414,7.414,0,0,0,83.311-83.2Zm0,12.082a4.351,4.351,0,0,1-4.245-4.56,4.333,4.333,0,0,1,4.245-4.558,4.334,4.334,0,0,1,4.247,4.558A4.352,4.352,0,0,1,83.311-71.118ZM63.716-80.891V-77.7h7.637a6.66,6.66,0,0,1-1.739,4.018,7.819,7.819,0,0,1-5.9,2.336,8.38,8.38,0,0,1-8.376-8.491,8.38,8.38,0,0,1,8.376-8.491,8.14,8.14,0,0,1,5.757,2.28L71.725-88.3a11.137,11.137,0,0,0-8.008-3.219A11.845,11.845,0,0,0,51.863-79.837,11.845,11.845,0,0,0,63.716-68.155a10.682,10.682,0,0,0,8.15-3.276A10.55,10.55,0,0,0,74.631-78.9a10.327,10.327,0,0,0-.172-2Zm80.136,2.48a6.992,6.992,0,0,0-6.44-4.788,7.15,7.15,0,0,0-7.1,7.522,7.361,7.361,0,0,0,7.465,7.522,7.481,7.481,0,0,0,6.268-3.334L141.486-73.2a4.293,4.293,0,0,1-3.7,2.08,3.827,3.827,0,0,1-3.647-2.28l10.058-4.16Zm-10.258,2.506a4.127,4.127,0,0,1,3.932-4.388,2.913,2.913,0,0,1,2.793,1.6Zm-8.178,7.3h3.306V-90.721h-3.306ZM120-81.517h-.113a5.212,5.212,0,0,0-3.962-1.682,7.481,7.481,0,0,0-7.207,7.55,7.447,7.447,0,0,0,7.207,7.494,5.134,5.134,0,0,0,3.962-1.709H120v1.082c0,2.878-1.539,4.416-4.017,4.416a4.164,4.164,0,0,1-3.79-2.678l-2.878,1.2a7.169,7.169,0,0,0,6.668,4.446c3.875,0,7.151-2.28,7.151-7.837V-82.743H120Zm-3.788,10.4a4.319,4.319,0,0,1-4.19-4.531,4.351,4.351,0,0,1,4.19-4.586c2.25,0,4.017,1.937,4.017,4.586C120.23-73.028,118.463-71.118,116.214-71.118Zm43.121-19.6h-7.909V-68.61h3.3v-8.378h4.609a7.006,7.006,0,0,0,7.253-6.866A7.006,7.006,0,0,0,159.335-90.721Zm.085,10.656h-4.694v-7.579h4.694a3.831,3.831,0,0,1,3.868,3.79A3.85,3.85,0,0,1,159.42-80.065Zm20.394-3.175a6.2,6.2,0,0,0-5.888,3.385l2.931,1.224a3.126,3.126,0,0,1,3.016-1.622c1.707,0,3.442,1.024,3.47,2.844v.228a7.3,7.3,0,0,0-3.442-.854c-3.159,0-6.372,1.735-6.372,4.979,0,2.957,2.589,4.864,5.49,4.864a4.654,4.654,0,0,0,4.209-2.161h.115v1.707h3.185v-8.477C186.528-81.05,183.6-83.24,179.814-83.24Zm-.4,12.117c-1.081,0-2.588-.539-2.588-1.877,0-1.707,1.877-2.361,3.5-2.361a5.888,5.888,0,0,1,3.016.739A4,4,0,0,1,179.416-71.123Zm18.718-11.634-3.783,9.586h-.113l-3.926-9.586h-3.555l5.888,13.4-3.357,7.451h3.442L201.8-82.757ZM168.408-68.61h3.3V-90.721h-3.3Z" transform="translate(3.087 112.018)"/>
    <path id="Path_75" data-name="Path 75" d="M21.613-100.974a3.542,3.542,0,0,0-.819,2.485v39.115a3.536,3.536,0,0,0,.819,2.485l.131.127,21.912-21.91v-.518L21.744-101.1Z" transform="translate(-20.794 104.652)" fill="url(#linear-gradient)"/>
    <path id="Path_76" data-name="Path 76" d="M41.025-77.713l-7.3-7.306v-.518l7.306-7.3.164.094,8.652,4.917c2.473,1.4,2.473,3.7,0,5.108l-8.652,4.917Z" transform="translate(-10.858 111.001)" fill="url(#linear-gradient-2)"/>
    <path id="Path_77" data-name="Path 77" d="M50.77-81.1,43.3-88.566,21.257-66.523c.815.863,2.16.969,3.675.11L50.77-81.1" transform="translate(-20.438 114.287)" fill="url(#linear-gradient-3)"/>
    <path id="Path_78" data-name="Path 78" d="M50.77-86.152l-25.838-14.68c-1.516-.861-2.86-.753-3.675.108L43.3-78.681Z" transform="translate(-20.438 104.403)" fill="url(#linear-gradient-4)"/>
    <path id="Path_79" data-name="Path 79" d="M50.606-84.435,24.932-69.847c-1.436.815-2.72.76-3.543.018h0l-.133.133h0l.131.127,0,0c.822.743,2.106.8,3.543-.018L50.77-84.271Z" transform="translate(-20.438 117.463)" opacity="0.2" style="isolation: isolate"/>
    <path id="Path_80" data-name="Path 80" d="M21.613-75.168a3.542,3.542,0,0,1-.819-2.485v.258a3.542,3.542,0,0,0,.819,2.485l.133-.133Z" transform="translate(-20.794 122.676)" opacity="0.12" style="isolation: isolate"/>
    <path id="Path_81" data-name="Path 81" d="M46.668-86.271,37.851-81.26l.164.164,8.652-4.917a3.1,3.1,0,0,0,1.855-2.552h0A3.3,3.3,0,0,1,46.668-86.271Z" transform="translate(-7.683 114.288)" opacity="0.12" style="isolation: isolate"/>
    <path id="Path_82" data-name="Path 82" d="M25.288-100.572l34.49,19.6a3.292,3.292,0,0,1,1.855,2.294h0a3.1,3.1,0,0,0-1.855-2.552l-34.49-19.6c-2.471-1.406-4.494-.239-4.494,2.593v.258C20.794-100.81,22.817-101.976,25.288-100.572Z" transform="translate(-20.794 104.403)" fill="#fff" opacity="0.25" style="isolation: isolate"/>
    <path id="Path_83" data-name="Path 83" d="M52.16-90.955v-10.612h3.245a5.273,5.273,0,0,1,3.912,1.475,5.2,5.2,0,0,1,1.468,3.831,5.193,5.193,0,0,1-1.468,3.831,5.267,5.267,0,0,1-3.912,1.475Zm1.362-1.3h1.884a3.979,3.979,0,0,0,2.911-1.052,3.943,3.943,0,0,0,1.075-2.95A3.947,3.947,0,0,0,58.317-99.2a3.969,3.969,0,0,0-2.911-1.059H53.522Z" transform="translate(3.316 104.294)"/>
    <path id="Path_84" data-name="Path 84" d="M58.119-90.955v-10.612h1.362v10.612Z" transform="translate(7.896 104.294)"/>
    <path id="Path_85" data-name="Path 85" d="M63.566-90.615a3.955,3.955,0,0,1-2.26-.755,3.492,3.492,0,0,1-1.445-2.119l1.245-.5a2.839,2.839,0,0,0,.911,1.475,2.3,2.3,0,0,0,1.549.6,2.479,2.479,0,0,0,1.519-.467,1.5,1.5,0,0,0,.628-1.268,1.622,1.622,0,0,0-.628-1.369,6.5,6.5,0,0,0-1.993-.9,5.329,5.329,0,0,1-2.135-1.148,2.4,2.4,0,0,1-.727-1.8,2.637,2.637,0,0,1,.906-1.986,3.314,3.314,0,0,1,2.356-.845,3.414,3.414,0,0,1,2.193.676,3.122,3.122,0,0,1,1.1,1.475l-1.243.516a1.848,1.848,0,0,0-.66-.932,2.079,2.079,0,0,0-1.358-.43,2.1,2.1,0,0,0-1.341.437,1.332,1.332,0,0,0-.555,1.089,1.243,1.243,0,0,0,.511,1,4.9,4.9,0,0,0,1.505.732,12.715,12.715,0,0,1,1.312.49,5.986,5.986,0,0,1,1.065.63,2.511,2.511,0,0,1,.815.978,3.149,3.149,0,0,1,.274,1.357,2.924,2.924,0,0,1-.317,1.378,2.569,2.569,0,0,1-.847.964,4.2,4.2,0,0,1-1.132.541A4.246,4.246,0,0,1,63.566-90.615Z" transform="translate(9.235 104.191)"/>
    <path id="Path_86" data-name="Path 86" d="M66.427-90.955H65.065v-10.612h3.617a3.349,3.349,0,0,1,2.333.9A2.925,2.925,0,0,1,72-98.408a2.922,2.922,0,0,1-.987,2.259,3.349,3.349,0,0,1-2.333.9H66.427Zm0-5.6H68.71a1.761,1.761,0,0,0,1.38-.577,1.87,1.87,0,0,0,.518-1.273,1.871,1.871,0,0,0-.518-1.275,1.762,1.762,0,0,0-1.38-.578H66.427Z" transform="translate(13.235 104.294)"/>
    <path id="Path_87" data-name="Path 87" d="M78.926-92.223a5.206,5.206,0,0,1-3.891,1.608,5.2,5.2,0,0,1-3.891-1.608,5.425,5.425,0,0,1-1.562-3.935,5.421,5.421,0,0,1,1.562-3.933,5.2,5.2,0,0,1,3.891-1.609,5.2,5.2,0,0,1,3.884,1.617,5.424,5.424,0,0,1,1.571,3.926A5.434,5.434,0,0,1,78.926-92.223Zm-6.774-.888a3.9,3.9,0,0,0,2.883,1.192,3.9,3.9,0,0,0,2.881-1.192,4.15,4.15,0,0,0,1.18-3.047,4.149,4.149,0,0,0-1.18-3.046,3.9,3.9,0,0,0-2.881-1.192A3.9,3.9,0,0,0,72.152-99.2a4.155,4.155,0,0,0-1.178,3.046A4.156,4.156,0,0,0,72.152-93.111Z" transform="translate(16.707 104.191)"/>
    <path id="Path_88" data-name="Path 88" d="M76.831-90.955v-10.612H78.49l5.157,8.256h.058l-.058-2.045v-6.212h1.365v10.612H83.589l-5.4-8.654h-.058l.058,2.045v6.609Z" transform="translate(22.279 104.294)"/>
    <path id="Path_89" data-name="Path 89" d="M82.831-89.77v-10.612h1.362V-89.77ZM84.1-101.211H82.918l.773-1.9h1.482Z" transform="translate(26.891 103.109)"/>
    <path id="Path_90" data-name="Path 90" d="M88.081-90.955l-3.734-10.612h1.512l2.9,8.612h.058l3.024-8.612h1.512L89.5-90.955Z" transform="translate(28.056 104.294)"/>
    <path id="Path_91" data-name="Path 91" d="M96.51-100.262H91.676V-96.9h4.358v1.275H91.676v3.364H96.51v1.3h-6.2v-10.612h6.2Z" transform="translate(32.643 104.294)"/>
    <path id="Path_92" data-name="Path 92" d="M95.024-90.955v-10.612h1.362v9.308h4.595v1.3Z" transform="translate(36.263 104.294)"/>
    <path id="Path_93" data-name="Path 93" d="M101.375-90.955v-10.612h1.661l5.157,8.256h.058l-.058-2.045v-6.212h1.364v10.612h-1.422l-5.4-8.654h-.058l.058,2.045v6.609Z" transform="translate(41.145 104.294)"/>
    <path id="Path_94" data-name="Path 94" d="M116.343-92.223a5.207,5.207,0,0,1-3.893,1.608,5.2,5.2,0,0,1-3.889-1.608A5.427,5.427,0,0,1,107-96.158a5.422,5.422,0,0,1,1.563-3.933,5.2,5.2,0,0,1,3.889-1.609,5.205,5.205,0,0,1,3.886,1.617,5.422,5.422,0,0,1,1.569,3.926A5.432,5.432,0,0,1,116.343-92.223Zm-6.774-.888a3.9,3.9,0,0,0,2.881,1.192,3.9,3.9,0,0,0,2.883-1.192,4.15,4.15,0,0,0,1.18-3.047,4.149,4.149,0,0,0-1.18-3.046,3.9,3.9,0,0,0-2.883-1.192,3.9,3.9,0,0,0-2.881,1.192,4.155,4.155,0,0,0-1.178,3.046A4.156,4.156,0,0,0,109.569-93.111Z" transform="translate(45.466 104.191)"/>
  </g>
</svg>
