<svg xmlns="http://www.w3.org/2000/svg" xmlns="http://www.w3.org/2000/svg" version="1.1" width="53.922" height="53.922" viewBox="0 0 53.922 53.922">
  <path id="Path_64" data-name="Path 64" d="M0,51.091V2.831a3.283,3.283,0,0,0,.088-.319A2.88,2.88,0,0,1,2.511.088,3.2,3.2,0,0,0,2.831,0h48.26a3.2,3.2,0,0,0,.32.088A2.876,2.876,0,0,1,53.833,2.51a3.208,3.208,0,0,0,.089.321V51.136a2.03,2.03,0,0,0-.087.272,2.879,2.879,0,0,1-2.427,2.427,1.977,1.977,0,0,0-.272.087H37.251c0-.165.005-.329.005-.494q0-10.031,0-20.062V33.04H43.84c.432,0,.422,0,.474-.432q.2-1.692.421-3.382c.173-1.349.354-2.7.529-4.045.04-.307.035-.308-.289-.308H37.268c-.005-.078-.011-.13-.011-.181,0-1.715-.01-3.43.007-5.145a7.572,7.572,0,0,1,.149-1.4A2.546,2.546,0,0,1,39.467,16a9.564,9.564,0,0,1,1.821-.211c1.34-.031,2.681-.014,4.021-.005.217,0,.279-.064.277-.279-.009-1.236,0-2.471,0-3.707,0-1.048,0-2.1,0-3.145,0-.183-.061-.251-.243-.26-.328-.017-.655-.072-.983-.084-1.766-.063-3.531-.142-5.3-.169a11.109,11.109,0,0,0-4.468.848,8.824,8.824,0,0,0-4.716,4.464,11.484,11.484,0,0,0-1.09,4.867c-.031,2.1-.014,4.209-.018,6.313,0,.078,0,.157,0,.245h-.3c-2.157,0-4.314,0-6.47,0-.224,0-.294.057-.293.288.008,2.531,0,5.062.005,7.594,0,.288,0,.289.3.289h6.76V33.3q0,10.143,0,20.287c0,.112-.008.224-.012.336H2.786a2.007,2.007,0,0,0-.271-.087A2.88,2.88,0,0,1,.088,51.411,3.24,3.24,0,0,0,0,51.091Z" fill="#75cbdb"/>
</svg>
