<svg xmlns="http://www.w3.org/2000/svg" version="1.1" width="53.996" height="52.887" viewBox="0 0 53.996 52.887">
  <path id="Path_96" data-name="Path 96" d="M0,19.043c.089,1.758,1.066,1.59,4.174,1.506s12.346-.083,12.346-.083S14.037,28.5,13.77,31.434s-.089,4.856,1.244,5.442,2.664-.419,3.2-2.679,2.931-11.219,4.353-13.647c0,0,6.49-.193,10.748-.249,2.132-.028,6.9.689,7.194-1.76.465-3.945-7.959-3.695-10.746-3.756-2.4-.052-4.5-.062-5.509-.011,0,0,3.2-8.875,4-10.549,2.329-4.88-3.1-6.078-5.6-.67C20.876,7.405,18.53,13.736,18.3,14.271s-.37.771-1.792.771c-1.035,0-6.207.346-9.971.76-1.871.206-6.662.726-6.535,3.241Z" transform="matrix(0.848, 0.53, -0.53, 0.848, 19.628, 0)" fill="#fff" fill-rule="evenodd"/>
</svg>
