<svg id="hambueguer" xmlns="http://www.w3.org/2000/svg" version="1.1" width="58.903" height="29.41" viewBox="0 0 58.903 29.41">
  <path id="Path_52" data-name="Path 52" d="M652.979,382.918c.095,1.6,1.133,1.446,4.437,1.37s26.437-.175,30.962-.227c2.265-.025,7.338.626,7.644-1.6.495-3.589-8.457-3.361-11.419-3.416-2.549-.047-12.573.234-14.083.234-1.1,0-6.6.315-10.6.692-1.989.187-7.08.66-6.945,2.948Z" transform="translate(-637.138 -379.039)" fill="#70ecf4" fill-rule="evenodd"/>
  <path id="Path_53" data-name="Path 53" d="M652.98,397.918c.129,1.6,1.549,1.446,6.068,1.37s36.159-.175,42.349-.227c3.1-.025,10.036.626,10.456-1.6.677-3.589-11.568-3.361-15.619-3.416-3.487-.047-17.2.234-19.262.234-1.5,0-9.022.315-14.492.692-2.72.187-9.684.66-9.5,2.948Z" transform="translate(-652.976 -381.98)" fill="#70ecf4" fill-rule="evenodd"/>
  <path id="Path_54" data-name="Path 54" d="M652.98,412.918c.129,1.6,1.549,1.446,6.068,1.37s36.159-.175,42.349-.227c3.1-.025,10.036.626,10.456-1.6.677-3.589-11.568-3.361-15.619-3.416-3.487-.047-17.2.234-19.262.234-1.5,0-9.022.315-14.492.692-2.72.187-9.684.66-9.5,2.948Z" transform="translate(-652.976 -384.921)" fill="#70ecf4" fill-rule="evenodd"/>
</svg>
