<svg xmlns="http://www.w3.org/2000/svg" version="1.1" width="19.987" height="19.381" viewBox="0 0 19.987 19.381">
  <path id="Path_97" data-name="Path 97" d="M276.346,42.153c.044.92.526.832,2.059.788s6.089-.044,6.089-.044a49.662,49.662,0,0,0-1.358,5.739c-.131,1.533-.044,2.541.613,2.847s1.314-.219,1.577-1.4a47.045,47.045,0,0,1,2.147-7.141s3.2-.1,5.3-.13c1.051-.015,3.405.36,3.548-.921.229-2.064-3.925-1.933-5.3-1.965-1.183-.027-2.218-.032-2.717-.006,0,0,1.577-4.644,1.972-5.52,1.149-2.553-1.53-3.18-2.76-.351-.876,2.015-2.033,5.327-2.147,5.607s-.183.4-.884.4c-.51,0-3.061.181-4.917.4-.923.108-3.286.38-3.223,1.7Z" transform="translate(-276.344 -32.189)" fill="#70ecf4" fill-rule="evenodd"/>
</svg>
