<svg xmlns="http://www.w3.org/2000/svg" version="1.1" width="54.112" height="54" viewBox="0 0 54.112 54">
  <g id="Group_52" data-name="Group 52" transform="translate(-39.205 -39.869)">
    <circle id="Ellipse_8" data-name="Ellipse 8" cx="7.093" cy="7.093" r="7.093" transform="translate(56.157 66.849) rotate(-45)" fill="#75cbdb"/>
    <path id="Path_68" data-name="Path 68" d="M186.554,157.757H170.1a8.454,8.454,0,0,0-8.42,8.42v17.529a8.454,8.454,0,0,0,8.42,8.42h16.45a8.454,8.454,0,0,0,8.42-8.42V166.177a8.454,8.454,0,0,0-8.42-8.42Zm-8.164,27.862a10.833,10.833,0,1,1,10.833-10.833A10.833,10.833,0,0,1,178.39,185.619ZM189.4,166.35a2.565,2.565,0,1,1,2.565-2.565A2.565,2.565,0,0,1,189.4,166.35Z" transform="translate(-112.149 -107.945)" fill="#75cbdb"/>
    <path id="Path_69" data-name="Path 69" d="M81.544,39.869H50.978A11.8,11.8,0,0,0,39.205,51.7V82.04a11.8,11.8,0,0,0,11.773,11.83H81.544A11.8,11.8,0,0,0,93.317,82.04V51.7A11.8,11.8,0,0,0,81.544,39.869ZM85.85,75.761A11.478,11.478,0,0,1,74.405,87.205H57.955A11.478,11.478,0,0,1,46.511,75.761V58.232A11.478,11.478,0,0,1,57.955,46.788h16.45A11.478,11.478,0,0,1,85.85,58.232Z" fill="#75cbdb"/>
  </g>
</svg>
