<svg id="_2447708260768" data-name=" 2447708260768" xmlns="http://www.w3.org/2000/svg" version="1.1" width="201.695" height="69" viewBox="0 0 201.695 69">
  <g id="Group_43" data-name="Group 43">
    <path id="Path_22" data-name="Path 22" d="M276.347,50.146c.079,1.658.947,1.5,3.71,1.42s10.973-.079,10.973-.079-2.21,7.579-2.447,10.342-.079,4.579,1.106,5.131,2.368-.4,2.842-2.526,2.6-10.579,3.869-12.868c0,0,5.768-.182,9.553-.235,1.895-.026,6.137.649,6.394-1.66.413-3.72-7.074-3.484-9.551-3.541-2.132-.049-4-.058-4.9-.011,0,0,2.842-8.368,3.553-9.947,2.07-4.6-2.757-5.731-4.974-.632-1.579,3.631-3.664,9.6-3.869,10.105s-.329.727-1.592.727c-.92,0-5.517.326-8.862.717-1.663.194-5.921.685-5.808,3.056Z" transform="translate(-110.667 -12.891)" fill="#70ecf4" fill-rule="evenodd"/>
    <path id="Path_23" data-name="Path 23" d="M80.693,7.392h6.882A1.729,1.729,0,0,1,89.3,9.117V62.734a9.253,9.253,0,0,1-9.226,9.226H70.978a9.256,9.256,0,0,1-9.21-8.685,1.416,1.416,0,0,1-.107-.542V57.012a1.437,1.437,0,0,1,1.433-1.433h7.464a1.437,1.437,0,0,1,1.433,1.433V61.6a2.344,2.344,0,0,0,2.337,2.337h2.3A2.344,2.344,0,0,0,78.968,61.6h.007c0-.052-.007-.1-.007-.156V39.261a20.613,20.613,0,0,0,0-27.01V9.117a1.729,1.729,0,0,1,1.724-1.725Z" transform="translate(-24.693 -2.96)" fill="#fefefe" fill-rule="evenodd"/>
    <path id="Path_24" data-name="Path 24" d="M127.9,7.544h4.164a12.317,12.317,0,0,1,12.281,12.281V59.74a12.317,12.317,0,0,1-12.281,12.281H127.9A12.316,12.316,0,0,1,115.621,59.74V19.825A12.317,12.317,0,0,1,127.9,7.544Zm.949,8.476h2.266a2.363,2.363,0,0,1,2.356,2.356V61.19a2.363,2.363,0,0,1-2.356,2.356h-2.266a2.363,2.363,0,0,1-2.356-2.356V18.376A2.363,2.363,0,0,1,128.851,16.02Z" transform="translate(-46.302 -3.021)" fill="#fefefe" fill-rule="evenodd"/>
    <path id="Path_25" data-name="Path 25" d="M181.861,7.544h4.164a12.32,12.32,0,0,1,12.256,11.511.653.653,0,0,1,.025.182v2.716a.683.683,0,0,1-.68.681h-8.969a.683.683,0,0,1-.681-.681V18.376a2.363,2.363,0,0,0-2.356-2.356h-2.266A2.363,2.363,0,0,0,181,18.376V61.19a2.363,2.363,0,0,0,2.356,2.356h2.266a2.363,2.363,0,0,0,2.356-2.356V48.822h-3.185a1.259,1.259,0,0,1-1.255-1.255v-5.01a1.259,1.259,0,0,1,1.255-1.255h12.26a1.259,1.259,0,0,1,1.255,1.255V59.74a12.317,12.317,0,0,1-12.281,12.281h-4.164A12.317,12.317,0,0,1,169.581,59.74V19.825A12.316,12.316,0,0,1,181.862,7.545Z" transform="translate(-67.912 -3.021)" fill="#fefefe" fill-rule="evenodd"/>
    <path id="Path_26" data-name="Path 26" d="M231.126,7.544h10.247a1.268,1.268,0,0,1,1.212,1.062L251.4,70.96a.9.9,0,0,1-.912,1.062h-8.267a1.263,1.263,0,0,1-1.212-1.062l-1.828-13.98h-5.856l-1.829,13.98a1.263,1.263,0,0,1-1.212,1.062h-8.268a.9.9,0,0,1-.912-1.062l8.812-62.354a1.269,1.269,0,0,1,1.212-1.062Zm7,41.37L236.25,34.585l-1.874,14.329h3.747Z" transform="translate(-88.54 -3.021)" fill="#fefefe" fill-rule="evenodd"/>
    <g id="Group_17" data-name="Group 17" transform="translate(5.508)">
      <path id="Path_27" data-name="Path 27" d="M10.687,0,23.3,7.584l-1.5,2.495L9.187,2.495Z" transform="translate(-9.187 0)" fill="#71ebf6"/>
    </g>
    <g id="Group_18" data-name="Group 18" transform="translate(0 15.878)">
      <path id="Path_28" data-name="Path 28" d="M.279,26.485,14.928,27.9l-.279,2.9L0,29.382Z" transform="translate(0 -26.485)" fill="#71ebf6"/>
    </g>
    <g id="Group_19" data-name="Group 19" transform="translate(0.863 27.626)">
      <path id="Path_29" data-name="Path 29" d="M1.439,50.86l13.919-4.78.945,2.753L2.384,53.613Z" transform="translate(-1.439 -46.08)" fill="#71ebf6"/>
    </g>
    <g id="Group_42" data-name="Group 42" transform="translate(19.686 3.778)">
      <g id="Group_20" data-name="Group 20" transform="translate(0 0.001)">
        <path id="Path_30" data-name="Path 30" d="M52.139,7.018A18.589,18.589,0,1,0,70.728,25.607,18.589,18.589,0,0,0,52.139,7.018Z" transform="translate(-33.121 -6.589)" fill="#70ecf4" fill-rule="evenodd"/>
        <path id="_1" data-name="1" d="M32.835,25.321h0l.025-.978.074-.965.121-.952.167-.936.213-.92.257-.9.3-.884.341-.864.38-.842.42-.82.458-.8.495-.772.53-.746.565-.718.6-.69.63-.66.661-.63.69-.6.718-.565.746-.53.772-.495.8-.458.82-.42L44.45,7.8l.863-.341.884-.3.9-.257.92-.212.937-.168.951-.121.966-.074.978-.025v.858l-.935.023L50,7.255l-.909.115-.895.159-.878.2-.862.245-.844.285-.825.325-.8.364-.782.4-.761.438-.736.472-.712.507-.686.539-.659.571-.631.6-.6.631-.571.659-.539.686-.507.712-.472.737-.437.76-.4.783-.364.8-.324.824-.285.844-.245.862-.2.879-.159.894-.116.909-.07.922-.023.935h-.858ZM51.853,44.339h0l-.978-.025-.966-.073-.951-.121-.937-.168-.92-.213-.9-.256-.884-.3-.863-.341-.843-.381-.82-.42-.8-.458-.772-.495-.746-.531L39.755,40l-.69-.6-.661-.63-.63-.661-.6-.69-.565-.718-.53-.746-.495-.771-.458-.8-.42-.82-.38-.842-.341-.864-.3-.884-.257-.9-.213-.92-.167-.937-.121-.951L32.86,26.3l-.025-.978h.858l.023.935.07.922.116.909.159.895.2.878.245.862.285.844.324.824.364.8.4.783.437.76.472.737.507.712.539.686.571.659.6.631.631.6.659.571.686.539.712.507.736.472.761.437.782.4.8.364.825.325.844.285.862.245.878.2.895.16.909.115.922.07.935.023h0ZM70.87,25.321h0l-.025.978-.073.965-.121.951-.167.937-.213.92-.256.9-.3.884-.341.864-.381.842-.42.82-.458.8-.495.771-.53.746-.564.718-.6.69-.63.661-.661.63-.69.6-.718.564-.746.531-.772.495-.8.458-.82.42-.843.381-.863.341-.884.3-.9.256-.92.213-.937.168-.951.121-.966.073-.978.025V43.48l.935-.023.922-.07.909-.115.895-.16.878-.2.862-.245.844-.285.824-.325.8-.364.783-.4.76-.437.736-.472.712-.507.686-.539.659-.571.631-.6.6-.631.57-.659.539-.686.507-.712.472-.737.437-.76.4-.783.364-.8.325-.824.285-.844.245-.862.2-.878.159-.895.116-.909.07-.922.023-.935h.858ZM51.853,6.3h0l.978.025L53.8,6.4l.951.121.937.168.92.212.9.257.884.3.863.341.843.381.82.42.8.458.772.495.746.53.718.565.69.6.661.63.63.66.6.69.564.718.53.746.495.772.458.8.42.82.381.842.341.864.3.884.256.9.213.92.167.936.121.952.073.965.025.978h-.858l-.023-.935-.07-.922-.116-.909-.159-.894-.2-.879L69.2,19.92l-.285-.844-.325-.824-.364-.8-.4-.783-.437-.76-.472-.737-.507-.712-.538-.686-.571-.659-.6-.631-.631-.6-.659-.571-.686-.539-.712-.507-.736-.472-.76-.438-.783-.4-.8-.364L58.1,8.263l-.844-.285-.862-.245-.878-.2-.895-.159-.909-.115-.922-.071-.935-.023h0V6.3Z" transform="translate(-32.835 -6.303)"/>
      </g>
      <g id="Group_21" data-name="Group 21" transform="translate(0.264 21.684)">
        <path id="Path_31" data-name="Path 31" d="M33.991,43.225a18.505,18.505,0,0,0,3.512,8.1c.015-.2.037-.431.07-.689A15.469,15.469,0,0,1,34.2,43.185s-.081.02-.2.039Z" transform="translate(-33.562 -42.757)" fill-rule="evenodd"/>
        <path id="_1-2" data-name="1" d="M37.645,51.068l-.769.228-.168-.225-.165-.227-.162-.23-.158-.233-.155-.234-.152-.237-.147-.24-.145-.242-.141-.245-.138-.246-.134-.249-.13-.251-.127-.253-.123-.255-.119-.257-.116-.259-.112-.262-.107-.263-.1-.266-.1-.267-.1-.269-.092-.271-.088-.273-.085-.275-.08-.276-.077-.278-.072-.28-.068-.281-.064-.283-.06-.285-.055-.286-.052-.287.846-.144.049.275.053.273.057.271.061.27.065.269.069.267.073.265.077.264.081.263.085.261.088.258.092.257.1.255.1.253.1.252.107.249.11.248.114.246.118.243.122.241.124.24.128.237.131.235.134.233.138.231.141.229.145.226.147.224.151.222.154.22.158.217.16.215L36.789,51l.856.064Zm-.769.228.683-.519a.429.429,0,0,1-.683.519Zm.724-1.242.112.346,0,.023,0,.023,0,.025,0,.022,0,.022,0,.022,0,.023,0,.023,0,.02,0,.023,0,.023,0,.019,0,.022,0,.023,0,.021,0,.02,0,.02,0,.022,0,.021,0,.02,0,.02,0,.02,0,.021,0,.019v.019l0,.02v.019l0,.017v.057l0,.018L36.79,51v-.059l0-.019,0-.022v-.021l0-.02,0-.022,0-.022,0-.02,0-.02,0-.022,0-.023,0-.02,0-.021,0-.023,0-.023,0-.023,0-.022,0-.022,0-.025,0-.022,0-.022,0-.026,0-.022,0-.023,0-.024,0-.025,0-.025,0-.024,0-.025,0-.025.112.347.627-.586Zm.112.346-.851-.107a.429.429,0,1,1,.851.107Zm-3.907-7.916.527.344.078.423.088.412.1.4.1.388.111.377.117.366.123.353.127.342.131.33.134.317.137.3.138.291.138.279.14.266.138.253.136.239.135.225.131.212.127.2.123.185.117.17.111.156.1.141.1.127.087.113.078.1.067.082.057.067.044.051.032.037.02.022,0,0-.627.586-.012-.013-.024-.026-.038-.043-.052-.06-.063-.076-.074-.091-.085-.106-.094-.121-.1-.137-.112-.151L36.2,49.65l-.125-.182-.13-.2-.135-.21-.138-.224-.143-.239-.144-.253-.146-.266-.147-.28-.147-.294L34.8,47.2l-.144-.321-.141-.334-.138-.347-.134-.36-.129-.372-.124-.385-.117-.4-.109-.409-.1-.422-.092-.434-.082-.445.527.344-.208-.832Zm.527.344-.846.144a.429.429,0,1,1,.845-.144Zm-1.05.183.358-.5h.01l.009,0h.019l.012,0H33.7l.011,0,.007,0,.01,0h.01l.009,0,.009,0h.006l.011,0H33.8l.011,0h0l-.011,0h0l.014,0-.008,0-.008,0,.043-.01-.033.007.208.832-.034.007.042-.009-.01,0-.01,0,.01,0-.006,0-.016,0h-.01l-.013,0h-.011l-.011,0h0l-.011,0-.011,0h-.007l-.007,0-.011,0-.011,0h-.008l-.011,0h-.008l-.013,0-.015,0h-.009l-.013,0-.012,0-.014,0-.013,0,.359-.5-.846.144Zm.358-.5.129.848a.429.429,0,0,1-.129-.848Z" transform="translate(-33.276 -42.471)"/>
      </g>
      <g id="Group_22" data-name="Group 22" transform="translate(27.302 23.483)">
        <path id="Path_32" data-name="Path 32" d="M84.148,53.776a18.63,18.63,0,0,0,2.421-3.352c1.283-3.011,1.069-4.237,1.069-4.237a10.5,10.5,0,0,1-3.855,1.1A20.739,20.739,0,0,1,79.088,54a9.837,9.837,0,0,1,1.091,2.611,15.569,15.569,0,0,0,3.969-2.836Z" transform="translate(-78.66 -45.757)" fill-rule="evenodd"/>
        <path id="_1-3" data-name="1" d="M86.678,50.305l-.022.043-.066.116-.067.115-.068.115-.068.115-.069.113-.07.113-.07.112-.071.112-.072.111-.073.112-.073.11-.074.11-.075.109-.076.109-.077.108-.077.107-.078.107-.079.106-.079.106-.08.1-.081.1-.081.1-.083.1-.083.1-.084.1-.084.1-.085.1-.086.1-.087.1-.087.1-.088.1-.088.1-.635-.576.085-.094.083-.095.083-.095.082-.1.082-.1.082-.1.08-.1.08-.1.079-.1.079-.1.078-.1.077-.1.077-.1.076-.1.075-.1.074-.1.074-.1.073-.1.072-.1.071-.1.071-.1.071-.106.069-.106.069-.107.068-.107.067-.107.067-.108.065-.109.066-.109.064-.11.064-.11.063-.11-.021.043.789.336Zm-.022.043-.746-.422a.429.429,0,1,1,.746.422Zm.483-4.821.636.3,0,.017,0,.016,0,.028,0,.035,0,.043,0,.05,0,.057v.14l0,.081,0,.089-.007.1-.01.106-.013.115-.016.124-.019.131-.023.14-.028.149-.032.158-.037.167-.042.176-.047.185-.053.194-.059.2-.065.213-.071.222-.079.233-.086.242-.094.252-.1.262-.11.272-.118.282-.79-.336L86,49.7l.1-.261.1-.251.089-.241.082-.23.074-.221.068-.21.061-.2.055-.191.049-.181.044-.171.039-.162.034-.153.028-.143.025-.134.02-.125.017-.116.014-.107.011-.1.008-.09.006-.081,0-.073,0-.065v-.176l0-.024v-.031l0,.01.635.3-.426-.745Zm.636.3-.845.147a.429.429,0,1,1,.845-.147ZM83.1,46.841l.367-.268h.021l.027,0,.039,0,.051-.005.059-.007.071-.008.079-.01.088-.011.1-.014.1-.015.111-.018.118-.02.124-.022.13-.024.134-.028.139-.03L85,46.322l.147-.035.15-.038.152-.041.155-.044.156-.048.157-.05.157-.055.156-.058.156-.061.155-.065.153-.068.151-.073.149-.076.144-.08.426.745-.167.092-.17.087-.171.082-.173.078-.174.073-.174.068-.173.064-.173.06-.171.056-.17.052-.168.049-.165.045-.162.041-.158.038-.153.035-.15.032-.144.029-.138.027-.133.024-.126.021-.119.019-.112.017-.1.014-.1.013-.086.01-.076.008-.067.007-.055.005-.046,0-.034,0h-.029l.367-.268-.8-.32Zm.367-.268.061.856a.429.429,0,0,1-.061-.856Zm-5.029,7.366.077-.542.007-.005.025-.023.041-.039.057-.054.071-.07.086-.085.1-.1.111-.113.122-.127.133-.141.143-.154.152-.167.159-.18.167-.191.173-.2.179-.214.182-.225.186-.237.188-.246.191-.257.192-.266.192-.276.19-.285.189-.293.186-.3.183-.309.179-.317.174-.323.168-.33.161-.336.153-.342.145-.348.8.32-.153.369-.163.363-.17.355-.177.348-.183.34-.188.332-.192.324-.195.315-.2.306-.2.3-.2.287-.2.277-.2.267-.2.256-.193.246-.19.234-.185.223-.179.21-.173.2-.165.186-.158.173-.148.161-.139.146-.128.133-.117.119-.1.1-.091.089-.077.074-.062.059-.046.043-.029.027-.011.01.077-.541-.731.448Zm.077-.542.577.635a.429.429,0,1,1-.577-.635Zm1.568,3.314-.607-.289v0l0-.008,0-.017-.006-.023-.008-.031-.01-.035-.011-.042-.014-.049-.016-.055-.017-.059-.019-.064-.022-.069-.024-.074-.026-.079-.028-.083-.03-.087-.032-.09-.035-.094-.037-.1-.04-.1-.041-.1-.044-.1-.046-.107-.049-.108-.051-.11-.053-.112-.056-.113L78.7,54.4l-.061-.114-.064-.115-.066-.115-.068-.114.731-.448.077.127.073.127.07.127.067.125.065.125.061.124.058.122.056.121.053.118.05.116.048.114.045.112.043.107.04.106.037.1.035.1.033.094.031.09.028.085.026.08.024.077.022.072.019.065.017.059.015.053.013.049.011.043.009.034.007.028,0,.02,0,.015v.007l-.607-.29.378.77Zm-.607-.289.836-.192a.429.429,0,0,1-.836.192Zm4.705-2.645-.009.01-.017.017-.025.026-.032.032-.041.041-.05.048-.058.056-.065.062-.073.068-.081.074-.088.08-.1.085-.1.09-.11.094-.116.1-.123.1-.129.106-.137.108-.143.111-.15.113-.155.115-.161.117-.167.118-.173.118-.178.119-.185.119-.189.119-.195.118-.2.118-.2.116-.21.114L80.3,56.6l-.219.11-.378-.77.206-.1.2-.106.2-.108.193-.11.189-.111.184-.112.179-.112.174-.113.169-.113.164-.112.158-.112.153-.111.147-.11.141-.107.135-.1.13-.1.123-.1.117-.1.11-.093.1-.089.1-.084.091-.08.083-.075.076-.07.068-.064.061-.057.053-.051.046-.044.037-.037.031-.03.02-.021.012-.012-.009.01.635.576Zm-.009.01-.617-.6a.429.429,0,0,1,.617.6Z" transform="translate(-78.373 -45.47)"/>
      </g>
      <g id="Group_23" data-name="Group 23" transform="translate(13.178)">
        <path id="Path_33" data-name="Path 33" d="M60.942,7.018a18.6,18.6,0,0,0-5.411.8,9.21,9.21,0,0,1,.807,1.1,13.9,13.9,0,0,1,7.875.5,6.738,6.738,0,0,1,4.19-.838A18.521,18.521,0,0,0,60.942,7.018Z" transform="translate(-55.103 -6.589)" fill-rule="evenodd"/>
        <path id="_1-4" data-name="1" d="M54.922,7.815l.2-.693.165-.049.165-.048.166-.046.166-.045.167-.043.167-.042.168-.04.168-.039.169-.038.17-.036.17-.034.171-.033.171-.031.172-.029.171-.029.173-.027L58,6.487l.174-.023.174-.022.175-.02L58.7,6.4l.176-.017.176-.016.177-.014.177-.013.177-.011.178-.01.179-.008.179-.005.179,0,.18,0h.18v.858h-.172l-.172,0-.171,0-.171.006-.17.007-.17.009-.17.01-.17.012-.169.013-.168.015-.168.017-.167.018-.167.019-.167.021-.166.023-.166.023-.165.026-.165.027-.164.029-.164.029L57.13,7.5l-.162.032-.162.035-.162.036-.161.037-.161.039-.16.04L56,7.763l-.159.043-.158.044-.158.046-.156.047.2-.693-.646.565Zm.2-.693.249.821a.429.429,0,0,1-.249-.821Zm1.015,1.93-.449-.2v0l0,0-.005-.009-.007-.012-.008-.013-.01-.016-.011-.017-.014-.021-.016-.025-.017-.026-.018-.028-.02-.03-.022-.033-.023-.033-.025-.036-.026-.038-.026-.038-.028-.04L55.378,8.4l-.031-.043-.031-.044-.032-.043-.034-.044-.034-.045-.035-.046-.035-.046-.036-.046L55.074,8l-.038-.046L55,7.9l-.038-.045-.038-.045.645-.565.044.052.044.051L55.7,7.4l.042.051.041.052.041.051.039.05.038.05.038.05.036.049.036.049.034.047.032.045.032.045.031.043.029.042.028.04.027.038.025.038.023.034.022.034.02.031.019.029.017.025.015.024.014.022.011.018.01.016.007.011,0,.008,0,.005,0,0-.449-.2.167.842Zm-.449-.2.731-.448a.429.429,0,1,1-.731.448Zm8.47.636-.406.028h0l-.024-.01-.041-.017-.058-.023-.075-.029-.091-.034-.109-.038-.125-.041-.14-.044-.156-.046-.171-.048-.186-.049-.2-.049-.215-.048L61.927,9l-.243-.045-.257-.043-.271-.039-.283-.035-.3-.03-.309-.026-.32-.019-.333-.013-.344,0-.355,0-.367.012-.377.021-.387.032-.4.043-.407.053-.417.066-.426.079-.167-.841.448-.083.439-.07L57.285,8l.419-.044.408-.034.4-.023.387-.012.376,0,.364.005.352.013.339.02.327.026.314.032.3.038.287.041.274.045.259.048.246.05.231.052.216.053.2.052.185.052.17.051.153.048.137.046.12.042.1.038.086.034.068.027.05.021.032.013.017.008-.406.028.457.725Zm-.406.028.354-.781a.429.429,0,1,1-.354.781ZM68.289,7.9l-.235.817h-.013l-.025,0-.035,0L67.934,8.7l-.058-.005-.067-.006-.076-.005-.085-.005-.094,0-.1,0-.109,0h-.116l-.122,0-.128,0-.134.007-.139.01-.144.013-.148.017-.152.021-.155.025-.158.029-.16.034-.162.039-.164.044-.164.05-.165.056-.165.062L64.8,9.15l-.164.075-.163.082-.161.089-.16.1L63.7,8.767l.189-.114.191-.1.192-.1.193-.088.192-.079.192-.073.191-.064.189-.058.187-.051L65.6,8l.182-.039.179-.034.175-.028.171-.023.167-.019.161-.015.156-.011.15-.008.144-.005.137,0h.129l.122,0,.114,0,.106,0,.1.006.088.006.077.007.067.007.056.007.046.005.032,0,.022,0-.235.817.345-.785Zm-.235.817.125-.848a.429.429,0,0,1-.125.848ZM60.656,6.3h0l.254,0,.253,0,.252.008.252.011.251.015.251.018.249.021.248.025.247.028.246.031L63.4,6.5l.244.037.243.04.242.043.241.046.24.049.239.052.238.055.237.058.236.061.234.064.233.067.232.07.231.073.23.076.228.078.227.082.225.084.224.087.222.089.221.092.219.094-.345.786-.21-.091L67.524,8.5l-.212-.085L67.1,8.337l-.215-.08-.216-.077L66.449,8.1l-.219-.073-.22-.069L65.789,7.9l-.223-.064-.224-.061-.225-.058-.225-.056L64.665,7.6l-.228-.05-.229-.047-.23-.044-.231-.041-.232-.038-.233-.035-.234-.032-.235-.03-.236-.026-.237-.023-.238-.02L61.861,7.2l-.24-.014-.24-.011-.241-.008-.242,0h-.242V6.3Z" transform="translate(-54.816 -6.302)"/>
      </g>
      <g id="Group_24" data-name="Group 24" transform="translate(32.165 5.894)">
        <path id="Path_34" data-name="Path 34" d="M92.18,28.461A18.52,18.52,0,0,0,87.2,16.847a6.8,6.8,0,0,1,1.905,4.659,12.75,12.75,0,0,1,3.075,6.955Z" transform="translate(-86.771 -16.419)" fill-rule="evenodd"/>
        <path id="_1-5" data-name="1" d="M86.6,16.848l.631-.58.273.3.267.3.26.309.254.315.248.32.24.326.233.331.227.336.22.342.212.346.206.351.2.356.191.36.183.365.176.369.167.374.16.378.151.381.144.386.135.39.128.393.119.4.111.4.1.4.094.408.085.411.076.414.066.417.058.421.048.423.039.426.029.429-.856.049-.028-.409-.037-.407-.046-.4-.055-.4-.064-.4-.072-.4-.08-.393L90.995,25l-.1-.385-.1-.383-.114-.38-.121-.375-.13-.372-.137-.368-.145-.365-.152-.36-.16-.357-.168-.353-.174-.348-.182-.344-.189-.34-.2-.335-.2-.33-.21-.326-.216-.321-.223-.316-.23-.311-.236-.306-.242-.3-.248-.3-.255-.29-.261-.284.631-.581-.636.575Zm.631-.58-.627.586a.429.429,0,0,1,.627-.586Zm1.281,5.248-.117-.327V21l0-.073,0-.083-.007-.093-.01-.1-.013-.112-.016-.121-.021-.128-.025-.137-.03-.144-.035-.15-.041-.158-.047-.163-.053-.169-.061-.173-.068-.179-.076-.183-.085-.187-.093-.191-.1-.194-.112-.2-.121-.2-.133-.2-.143-.2-.154-.2-.166-.2-.179-.205.636-.574.2.227.185.227.171.227.16.225.148.225.136.223.125.22.115.218.1.214.1.211.086.206.077.2.069.2.061.191.053.185.047.179.04.171.034.164.029.156.023.148.019.139.015.129.011.12.008.11.005.1,0,.089v.234l0,.025v.017l-.117-.327-.622.591Zm-.117-.327.856.062a.429.429,0,1,1-.856-.062Zm3.931,6.962-.855.065,0-.041-.007-.06-.01-.08-.013-.1-.017-.114-.02-.129-.024-.144-.029-.159-.034-.172-.038-.184-.045-.2-.05-.207-.056-.216-.062-.226-.069-.234-.076-.242-.083-.249-.091-.254-.1-.259-.107-.263-.115-.266-.124-.269-.133-.27-.143-.271-.152-.271-.162-.27-.172-.268-.182-.266-.194-.263-.2-.259-.215-.254-.227-.248.621-.591.249.272.236.278.223.282.21.286.2.288.186.291.174.291.164.292.153.291.143.29.133.288.124.285.114.281.106.276.1.27.089.264.081.257.074.249.066.24.06.23.053.219.047.209.042.2.035.183.031.17.026.155.022.139.018.123.014.106.011.088.008.07.005.05-.855.066.856-.049Zm-.855.065.854-.083a.429.429,0,1,1-.854.083Z" transform="translate(-86.485 -16.132)"/>
      </g>
      <g id="Group_25" data-name="Group 25" transform="translate(18.29 6.644)">
        <path id="Path_35" data-name="Path 35" d="M64.056,22.988a38.127,38.127,0,0,1,5.679-4.89,30.023,30.023,0,0,1,7.114,4.626s-.351,5.007-1.493,7.642c0,0-4.6.322-7.67.234q-1.816-3.983-3.63-7.612Z" transform="translate(-63.628 -17.67)" fill-rule="evenodd"/>
        <path id="_1-6" data-name="1" d="M69.27,18.2l.414-.03-.255.17-.255.176-.255.183-.255.188-.254.192-.252.2-.25.2-.247.2-.243.2-.24.2-.235.2-.229.2-.224.2-.218.2-.21.192-.2.187-.195.182-.186.176-.177.169-.167.162-.158.153-.146.144-.135.134-.123.123-.111.112-.1.1-.084.086-.07.072-.055.058-.04.042-.024.025L64.082,23l-.624-.589.01-.01.026-.027.041-.043.056-.059.073-.074.086-.088.1-.1.113-.114.126-.126.138-.137.149-.146.16-.156.171-.165.18-.172.19-.18.2-.185.207-.191.215-.2.222-.2.229-.2.234-.205.24-.206.245-.207.25-.207.254-.206.257-.2.261-.2.263-.2.264-.195.266-.189.267-.184.267-.178.414-.03-.36.779Zm.414-.03-.469-.718a.429.429,0,1,1,.469.718Zm6.452,4.237.125.333-.23-.224-.242-.222-.253-.22-.263-.218L75,21.643l-.277-.212-.282-.209-.287-.205-.29-.2-.292-.2-.292-.191-.291-.185-.289-.179-.286-.174-.281-.167-.275-.16-.269-.153-.26-.145-.251-.137L70.842,19l-.227-.122-.214-.112-.2-.1-.183-.094-.166-.084-.148-.073-.128-.064-.108-.052-.085-.041-.062-.03-.038-.017-.011-.005.36-.779.016.008.04.019.065.031.089.043.112.054.131.065.152.076.171.086.187.1.2.1.219.115.232.124.245.132.256.141.266.149.275.156.282.164.288.171.293.178.3.184.3.191.3.2.3.2.3.207.3.213.294.218.29.222.284.226.277.23.269.234.259.237.248.241.125.333-.856-.06Zm.125.333.607-.607a.429.429,0,0,1-.607.607Zm-1.219,6.91-.364.257.1-.24.1-.255.092-.267.088-.278.085-.287.081-.3.077-.3.073-.307.069-.31.065-.314.062-.314.058-.313.055-.311.052-.308.048-.3.044-.3.041-.29.038-.281.034-.27.032-.259L76,23.865l.026-.231.023-.215.02-.2.017-.18.015-.161.013-.138.01-.117.007-.094.005-.068,0-.041v-.012l.856.06v.016l0,.044-.005.07-.008.1-.01.12-.013.143-.016.164-.017.183-.021.2-.023.22-.026.236-.029.25-.032.264-.035.275-.039.286-.042.3-.046.3-.049.31-.053.315-.056.319-.061.322-.064.323-.068.323-.072.322-.076.32-.08.316-.085.311-.09.3-.094.3-.1.288-.1.278-.11.267-.364.258-.06-.856Zm-.364.257.787.341a.429.429,0,0,1-.787-.341Zm-6.887.227-.378-.251.289.007.3,0,.3,0h.625l.318,0,.321,0,.322-.007.322-.007.321-.008.319-.01.315-.011.311-.011.305-.012.3-.012.291-.013.282-.013.272-.013.261-.013.248-.013.235-.013.22-.012.2-.012.188-.011.17-.01.151-.01.13-.008.109-.007.088-.005.063,0,.039,0h.013l.059.856h-.014l-.04,0-.065,0-.088.006-.11.007-.132.008-.152.01-.171.01-.189.011-.206.012-.222.013-.237.013-.25.013-.262.014-.274.013-.284.013-.293.013-.3.013-.308.012-.314.011-.318.01-.321.01-.324.008-.325.007-.326.006-.324,0-.323,0H68.3l-.31,0-.3,0-.3-.007-.378-.251.78-.356Zm-.378-.251-.024.858a.429.429,0,1,1,.025-.858ZM64.082,23l.071-.486.115.228.113.228.114.229.113.23.114.23.113.231.114.231.114.233.113.233.114.234.114.235.114.235.113.236.114.236.113.237.114.239.114.239.113.239.114.24.113.24.115.242.113.242.114.243.113.243.114.244.113.245.114.246.114.246.113.247.114.248.113.248.114.249-.781.356-.113-.249L66.786,30l-.113-.247-.113-.246-.113-.245-.114-.245-.113-.244-.113-.244-.113-.242-.113-.242-.113-.241-.113-.24-.113-.24-.113-.239-.113-.238L65.2,26.6l-.113-.237-.113-.237-.113-.236-.113-.234-.113-.235-.113-.233-.113-.233-.113-.232-.113-.231-.113-.231-.113-.23-.113-.23-.113-.228-.113-.228-.113-.228-.113-.227.072-.486.624.588Zm.071-.486-.767.383a.429.429,0,0,1,.767-.383Z" transform="translate(-63.342 -17.384)"/>
      </g>
      <g id="Group_26" data-name="Group 26" transform="translate(7.84 24.324)">
        <path id="Path_36" data-name="Path 36" d="M56.524,48.392a56.1,56.1,0,0,0,2.942,6.33,13.624,13.624,0,0,1-6.085,3.187A19,19,0,0,1,46.628,53.5a18.99,18.99,0,0,1,1.627-5.907A53.1,53.1,0,0,0,56.524,48.392Z" transform="translate(-46.199 -47.16)" fill-rule="evenodd"/>
        <path id="_1-7" data-name="1" d="M58.882,54.126l-.073.524-.138-.243-.138-.249-.138-.255-.137-.259-.136-.263-.134-.266-.133-.268-.131-.268-.129-.269-.127-.269-.124-.266-.121-.263-.118-.26L56.99,51l-.111-.25-.107-.243-.1-.236-.1-.228-.093-.218-.088-.208-.083-.2-.077-.185-.071-.171-.064-.158-.058-.143-.051-.127-.044-.11-.037-.092-.03-.074-.021-.053-.013-.033,0-.013.8-.311,0,.01.013.032.021.053.028.071.036.091.044.108.05.125.058.141.064.156.07.17.076.182.082.195.087.206.092.216.1.225.1.233.106.24.109.246.113.252.116.256.119.26.122.262.125.263.127.264.129.264.129.262.131.26.133.256.133.252.133.247.134.24.133.233-.073.524-.6-.617Zm-.073.524.742-.43a.429.429,0,0,1-.742.43Zm-5.574,2.567-.223-.016.311-.067.307-.077.3-.085.3-.094.289-.1.284-.107.277-.113.269-.118.263-.122.255-.125.247-.128.239-.13.23-.131.221-.132.212-.131.2-.129.192-.128.182-.126.171-.122.161-.118.149-.112.138-.107.126-.1.113-.093.1-.085.089-.076.076-.066.062-.055.048-.044.035-.032.02-.019,0,0,.6.617-.011.011-.025.023-.039.037-.055.049-.068.061L59.2,55l-.1.081-.109.091-.122.1-.134.106-.146.113-.159.12-.17.125-.182.129-.193.133-.2.135-.215.138-.225.14-.234.14-.244.14-.254.138-.263.137-.272.134-.281.13-.288.126-.3.121-.3.115-.312.109-.319.1-.327.092-.333.083-.339.073-.223-.016.28-.811Zm-.223-.016.167.842a.429.429,0,1,1-.167-.842ZM46.768,53.25l-.116-.336.27.277.275.267.278.257.281.248.283.239.284.228.284.219.283.209.282.2.279.191.276.181L50,55.6l.266.163.261.154.254.144.246.137.239.126.228.119.218.11.208.1.195.092.183.083.169.076.155.067.14.058.124.051.106.042.088.034.07.027.049.018.03.011.007,0-.279.811-.015-.005-.035-.012-.057-.021-.076-.029-.1-.037-.113-.045-.131-.054-.147-.062-.163-.07-.177-.079-.192-.088-.2-.1-.217-.106-.228-.114-.239-.124-.248-.132-.257-.142-.265-.151-.272-.161-.278-.17-.284-.18-.288-.189-.292-.2-.295-.21-.3-.219-.3-.23-.3-.24-.3-.251-.3-.261-.294-.272-.29-.282-.286-.293-.116-.337.853.083Zm-.116-.336-.622.591a.429.429,0,0,1,.622-.591ZM47.9,47.726l.449-.225-.113.224-.109.23-.1.234-.1.237-.094.241-.089.243-.085.245-.08.244-.076.244-.071.243-.067.241-.063.238-.059.234-.055.23-.05.224-.047.218-.043.211-.04.2-.037.194-.032.185-.03.175-.026.164-.023.152-.02.139-.017.125-.015.112-.012.1-.01.08-.007.062-.005.046,0,.028v.007l-.854-.083,0-.013,0-.031.005-.05.008-.068.01-.085.013-.1.016-.116.018-.131.022-.145.024-.158.028-.17.031-.181.034-.192.038-.2.041-.211.044-.219.049-.227.053-.233.057-.239.061-.244.065-.249.071-.252.074-.255.08-.258.085-.258.089-.259.1-.258.1-.257.106-.255.112-.253.118-.249.124-.246.448-.224Zm.449-.225-.761-.4a.429.429,0,0,1,.761.4Zm7.489.76.4.273-.272,0-.27-.005-.269-.007-.267-.008-.265-.01-.264-.011-.263-.013-.261-.015-.26-.016-.26-.017-.258-.019-.258-.021-.257-.022-.256-.023-.256-.025-.255-.025-.256-.027-.255-.029-.255-.03-.255-.031-.256-.032-.256-.033-.257-.034L50,48.042l-.258-.036-.258-.037-.26-.038-.261-.039-.262-.04-.263-.041-.265-.042-.266-.043.136-.847.265.043.263.041.261.041.26.04.258.039.258.037.256.037.255.036.254.035.253.034.253.032.252.032.252.03.251.029.252.028.251.026.251.025.252.024.251.023.252.022.253.02.254.019.254.017.255.016.257.014.257.013.258.011.26.01.261.008.263.007.266,0,.267,0,.4.273-.8.311Zm.4.273.008-.858a.429.429,0,1,1-.008.858Z" transform="translate(-45.913 -46.874)"/>
      </g>
      <g id="Group_27" data-name="Group 27" transform="translate(1.836 5.728)">
        <path id="Path_37" data-name="Path 37" d="M43.861,16.571s.159,1.618,2.307,5.276A28.731,28.731,0,0,0,41.4,28.927a25.713,25.713,0,0,0-4.773-1.405,16.468,16.468,0,0,1,1.352-7.106,12.466,12.466,0,0,1,5.887-3.844Z" transform="translate(-36.184 -16.142)" fill-rule="evenodd"/>
        <path id="_1-8" data-name="1" d="M45.573,21.263l-.061.514-.2-.341-.186-.329-.176-.318-.165-.305-.154-.294-.145-.283-.134-.271-.126-.261-.116-.248L44,18.891l-.1-.226-.092-.216-.084-.2-.077-.194-.07-.183-.064-.172-.056-.162-.051-.152-.044-.141-.04-.129-.035-.121-.03-.11-.026-.1-.022-.089-.017-.08-.015-.07-.011-.06-.009-.05-.006-.041,0-.029,0-.02,0-.016L44,16.243v0l0,.019,0,.027.007.037.008.047.012.056.015.067.019.077.022.088.027.1.031.108.037.119.041.129.047.14.053.15.059.161.065.173.073.183.08.195.088.206.1.216.1.228.112.24.122.251.13.262.14.275.15.285.161.3.171.309.182.321.193.333-.061.514-.618-.6Zm-.061.514.74-.434a.429.429,0,0,1-.74.433Zm-4.226,6.472-.567.211.183-.387.188-.38.192-.372.2-.365.2-.356.2-.348.2-.339.2-.33.2-.321.2-.311.2-.3.2-.291.2-.279.194-.269.189-.257.185-.246.179-.233.173-.221.166-.209.158-.195.15-.181.14-.168.131-.153.121-.139.109-.124.1-.109.085-.094.071-.077.056-.061.042-.044.026-.028.01-.011.618.6-.007.007-.023.025-.038.041-.053.058L46,22.061l-.08.089-.093.1-.1.119-.116.135-.127.148-.136.162L45.2,23l-.153.189-.161.2-.168.215-.174.227-.18.239-.185.251-.188.261-.192.272-.194.282-.2.293-.2.3-.2.311-.2.321-.2.329-.195.337-.192.345-.19.353-.185.359-.182.366-.176.372-.567.212.354-.782Zm-.567.211.779.36a.429.429,0,0,1-.779-.359Zm-3.955-1.249-.339-.4.292.063.283.064.275.063.266.064.257.064.248.063.239.062.231.062.221.062.213.061.2.059.194.058.185.058.176.056.167.054.158.052.148.05.14.049.13.046.121.044.112.041.1.038.093.035.083.032.073.029.065.026.055.023.045.019.035.015.026.011.017.007.008,0-.353.782h0l-.011,0-.022-.01L40.865,29l-.041-.017-.05-.02-.059-.024-.07-.028-.079-.031-.088-.034-.1-.037-.106-.039-.115-.041-.125-.044L39.9,28.64l-.143-.049-.153-.05-.161-.052-.17-.054-.179-.055-.189-.057-.2-.058-.206-.059-.216-.059-.224-.061-.233-.061-.242-.062-.251-.062-.259-.062-.269-.062-.277-.062-.286-.062-.339-.4.857-.046Zm-.339-.4-.178.839a.429.429,0,0,1,.178-.839Zm1.591-6.409.059-.089-.136.29-.126.294-.118.3-.109.3-.1.3-.092.3-.084.3-.077.3-.07.3-.062.293-.056.289-.05.285-.044.278-.038.272-.033.264-.029.257-.023.247-.02.237-.016.227-.012.215-.01.2-.007.189,0,.175,0,.159v.38l0,.091,0,.071,0,.052v.038l-.857.046v-.015l0-.036,0-.058,0-.078,0-.1v-.4l0-.168.005-.183.007-.2.01-.212.013-.225.017-.237.021-.249L36,24.841l.03-.269.035-.278.04-.285.046-.293.052-.3.059-.3.066-.309.074-.314.081-.317.089-.318.1-.32.107-.321.116-.321.127-.32.137-.318.147-.315.059-.089.654.555Zm.059-.089-.771-.376a.429.429,0,1,1,.771.376Zm5.074-3.99.562.365-.2.067-.2.069-.2.071-.195.074-.193.076-.192.079-.191.081-.189.085-.188.086-.186.089-.185.093-.183.1-.182.1-.181.1-.179.106-.178.109-.177.113-.176.117-.174.121L40,18.55l-.172.129-.17.133-.17.137-.168.142-.167.147-.165.152-.164.156-.163.161-.162.167-.161.172-.159.177-.158.183-.653-.555.168-.195.171-.189.172-.184.174-.179.174-.173.176-.168.177-.163.18-.158.18-.153.182-.148L39.3,18l.185-.139.186-.134.187-.13.189-.125.191-.122.191-.118.193-.113.194-.11.2-.106.2-.1.2-.1.2-.1.2-.092.2-.089.2-.086.2-.083.2-.08.205-.078.206-.075.207-.073.209-.07.562.365-.854.084Zm.562.365-.27-.814a.429.429,0,0,1,.27.814Z" transform="translate(-35.898 -15.856)"/>
      </g>
      <g id="Group_28" data-name="Group 28" transform="translate(21.584 1.584)">
        <path id="Path_38" data-name="Path 38" d="M69.671,9.236l-.812.276a.429.429,0,1,1,.812-.276Zm.277.814-.693.457-.119-.18-.277-.814.812-.276Zm1.274,4.415.016.087-.084-.284-.086-.272-.086-.26-.088-.248-.088-.237-.088-.225-.088-.214-.088-.2-.086-.192-.086-.182-.085-.172L70.2,11.9l-.082-.152-.08-.142-.077-.132-.074-.123-.073-.114-.069-.1-.065-.1-.062-.087-.058-.079-.055-.071-.05-.062-.044-.055-.04-.047-.035-.039-.03-.032-.024-.025-.017-.018-.011-.01-.007-.006,0,0,.574-.637.01.01.014.013.022.022.029.029.034.036.039.043.045.051.05.058.055.066.059.074.064.082.067.091.071.1.074.109.077.118.08.126.083.137.085.145.087.155.089.165.091.175.091.185.092.2.093.207.093.217.093.228.094.239.092.251.092.262.091.273.09.285.088.3.015.087-.855.063Zm.016.087.824-.237a.429.429,0,1,1-.824.237Zm.91.806-.856.063-.07-.956.856-.063Zm-.856.063.856-.063a.429.429,0,1,1-.856.063Z" transform="translate(-68.836 -8.945)"/>
      </g>
      <g id="Group_29" data-name="Group 29" transform="translate(9.596 10.973)">
        <path id="Path_39" data-name="Path 39" d="M59.329,26.392l.216-.83a.429.429,0,0,1-.216.83Zm-1.474-.383.2-.835.019,0,1.474.383-.215.83-1.475-.383Zm.216-.83-.216.83a.429.429,0,1,1,.216-.83Zm-7.062-.539.028,0h.012l.031,0,.049,0,.068,0,.085,0,.1,0,.118,0,.134,0,.149,0,.164,0,.179,0h.4l.216,0,.228,0,.239.006.249.008.259.011.268.014.278.017.285.02.293.023.3.026.306.031.312.035.317.039.321.043.326.048.329.052.332.058.334.064.336.069-.179.839-.323-.067-.322-.061-.32-.056-.318-.051-.315-.046-.311-.042-.307-.037-.3-.034-.3-.029-.291-.026-.284-.023-.278-.019-.269-.016-.261-.013-.252-.011-.242-.008-.232-.005-.221,0-.21,0h-.556l-.158,0-.144,0-.13,0-.114,0-.1,0-.081,0-.063,0-.046,0h-.035l.028,0-.112-.85Zm-1.683,1.087-.112-.85,1.8-.237.112.851Zm-.112-.85.112.85a.429.429,0,1,1-.112-.85Z" transform="translate(-48.841 -24.605)"/>
      </g>
      <g id="Group_30" data-name="Group 30" transform="translate(8.388 1.074)">
        <path id="Path_40" data-name="Path 40" d="M53.834,8.785l-.677-.526a.429.429,0,0,1,.677.526Zm-.643.827-.18.135-.5-.662.643-.827.677.526-.643.827Zm-.677-.526.677.526a.429.429,0,0,1-.677-.526Zm-4.96,3.93.046-.085.009-.012.017-.024.029-.039.039-.052.049-.065.06-.076.07-.088.08-.1.09-.107.1-.115.11-.124L48.369,12l.129-.138.139-.144.148-.149.157-.153.167-.157.176-.16.186-.163.195-.164.2-.165.213-.165.222-.164.231-.163.24-.161.248-.158.257-.154.266-.15.275-.145.282-.138.291-.132.3-.125.318.8-.274.115-.267.122-.26.128-.252.134-.245.138-.237.143-.23.147-.222.149-.215.151-.206.153-.2.153-.191.154-.182.153-.173.152-.165.15-.156.147-.147.143-.139.139-.129.135L49,12.582l-.112.122-.1.115-.093.107-.083.1-.073.089-.064.08-.054.069-.044.058-.034.044-.023.032-.014.02,0,0,.046-.085-.8-.32Zm.1,2.049-.8-.32.7-1.728.8.32Zm-.8-.32.8.32a.429.429,0,0,1-.8-.32Z" transform="translate(-46.826 -8.093)"/>
      </g>
      <g id="Group_31" data-name="Group 31" transform="translate(29.91 10.525)">
        <path id="Path_41" data-name="Path 41" d="M82.909,25.489l.487.706a.429.429,0,0,1-.488-.706Zm1.173-.811.082-.044.406.749-1.173.811-.487-.706Zm.487.705-.487-.705a.429.429,0,1,1,.488.705Zm2.765-.641h-.057l-.029,0-.037,0-.041,0-.049,0-.055.005-.061.006-.067.008-.073.009-.079.011-.083.012-.089.014-.093.015-.1.018-.1.02-.107.022-.112.025-.116.026-.119.029-.124.032-.127.034-.131.037-.134.04-.137.043-.14.046-.143.05-.146.053-.149.057-.15.06-.325-.794.163-.065.161-.061.158-.058L84.8,24.4l.152-.05L85.1,24.3l.145-.044.142-.04.138-.037.134-.034.131-.032.126-.029.122-.026.117-.024.113-.022.108-.019.1-.017.1-.016.092-.013.086-.011.081-.01.076-.009.069-.007.062-.006.056,0,.051,0,.043,0,.036,0h.062l.043.857Zm.5-.884.043.857-.546.027-.043-.857Zm.043.857-.043-.857a.429.429,0,1,1,.043.856Z" transform="translate(-82.724 -23.858)"/>
      </g>
      <g id="Group_32" data-name="Group 32" transform="translate(3.113 8.27)">
        <path id="Path_42" data-name="Path 42" d="M38.9,20.551l-.856-.05a.429.429,0,1,1,.856.05Zm-.7,1.534-.074-.154v0l0-.012,0-.009,0-.01,0-.017,0-.019,0-.022,0-.025,0-.026,0-.029-.005-.033-.005-.035-.005-.037,0-.04-.005-.043-.005-.046,0-.046,0-.05,0-.052,0-.054,0-.056,0-.059,0-.062,0-.064,0-.065v-.284l0-.077,0-.077,0-.081.856.05,0,.071,0,.069,0,.067,0,.064v.239l0,.054,0,.052,0,.05,0,.049,0,.046,0,.044,0,.041,0,.04,0,.036,0,.034,0,.032,0,.03,0,.027,0,.023,0,.023,0,.021,0,.016,0,.014,0,.012,0,.008,0,.01v0h0l-.073-.155-.686.516Zm1.232.213-.686.516-.547-.728.686-.515Zm-.686.516.686-.516a.429.429,0,0,1-.686.516Z" transform="translate(-38.027 -20.097)"/>
      </g>
      <g id="Group_33" data-name="Group 33" transform="translate(0.469 15.538)">
        <path id="Path_43" data-name="Path 43" d="M33.618,38.778l.857.032a.429.429,0,0,1-.857-.032Zm2.145-4.729.025-.035-.107.18-.1.186-.1.19-.091.194-.085.2-.08.2-.075.2-.07.2-.066.2-.061.2-.056.2-.052.2-.047.2-.043.192-.04.189-.035.184-.032.178-.029.171-.026.165-.023.157-.02.148-.017.139-.014.128-.012.118-.01.107-.008.095-.006.081,0,.068,0,.053,0,.038v.028l-.857-.032v-.04l0-.045,0-.059.005-.074.007-.088.008-.1.01-.114.013-.126.016-.137.018-.147.02-.158.024-.166.027-.174.031-.182.034-.189.038-.2.042-.2.047-.206.051-.21.055-.214.06-.217.065-.219.071-.22.077-.221.082-.221.088-.221.1-.219.1-.218.109-.215.116-.212.124-.207.024-.035.68.523Zm.025-.035-.729-.452a.429.429,0,0,1,.73.452Zm.171-1.628.68.523-.877,1.141-.68-.522Zm.68.523-.68-.523a.429.429,0,1,1,.68.523Z" transform="translate(-33.617 -32.218)"/>
      </g>
      <g id="Group_34" data-name="Group 34" transform="translate(6.262 16.806)">
        <path id="Path_44" data-name="Path 44" d="M47.315,43.708l.723-.461a.429.429,0,1,1-.723.461Zm-.763-1.2,0,0,.726-.457.763,1.2-.723.461Zm.723-.461-.723.461a.429.429,0,1,1,.723-.461Zm-2.8-6.125-.009-.028,0,.009.012.032.019.053.026.072.034.091.04.109.047.125.053.141.059.155.065.17.071.182.077.194.082.205.087.214.091.224.1.231.1.239.1.243.109.249.112.253.115.255.118.257.121.258.123.258.126.258.128.255.13.252.131.248.132.243.133.236.134.229.134.221-.728.452-.142-.234-.141-.242-.139-.248-.138-.253-.135-.257-.134-.26-.131-.263-.129-.264-.127-.265-.123-.264-.121-.263-.117-.261-.114-.257-.11-.254-.106-.248-.1-.242-.1-.235-.093-.227-.088-.218-.083-.208-.078-.2-.072-.185-.067-.172-.06-.158-.054-.143-.048-.127-.041-.11-.034-.093-.028-.075-.019-.054-.012-.032,0-.014-.009-.028.826-.231ZM43.3,34.878l.826-.231.357,1.278-.826.231Zm.826-.231-.826.231a.429.429,0,1,1,.826-.231Z" transform="translate(-43.28 -34.334)"/>
      </g>
      <g id="Group_35" data-name="Group 35" transform="translate(28.888 17.951)">
        <path id="Path_45" data-name="Path 45" d="M84.847,44.88l.771-.376a.429.429,0,0,1-.771.376Zm-.676-1.386-.029-.08.8-.3.676,1.386-.771.376Zm.771-.376-.771.376a.429.429,0,0,1,.771-.376ZM82.5,37.379l.019.029.007.011.014.023.023.039.032.053.04.067.046.08.053.094.059.106.066.118.071.13.076.141.081.153.084.163.089.173.091.183.095.192.1.2.1.21.1.219.1.227.1.235.1.242.1.249.1.255.1.261.1.267.1.272.094.277.091.282.087.285.083.29.079.293-.83.217-.075-.279-.08-.276-.083-.273-.086-.269-.09-.266-.092-.261-.095-.257-.1-.251-.1-.246-.1-.24-.1-.233-.1-.227-.1-.219-.1-.212-.1-.2-.093-.2-.091-.186-.089-.177-.085-.168-.082-.157-.078-.147-.073-.136-.068-.125-.063-.114-.057-.1-.05-.089-.044-.076-.037-.063-.029-.049-.022-.035-.013-.022,0-.005.019.029.692-.507ZM81.1,36.926l.692-.507.7.96-.692.507Zm.692-.507-.692.507a.429.429,0,1,1,.692-.507Z" transform="translate(-81.02 -36.244)"/>
      </g>
      <g id="Group_36" data-name="Group 36" transform="translate(16.96 18.053)">
        <path id="Path_46" data-name="Path 46" d="M61.161,45.508l.785.345a.429.429,0,0,1-.785-.346Zm.776-1.765.022-.044.763.389-.776,1.765-.785-.345Zm.785.345-.785-.345a.429.429,0,1,1,.785.346Zm4.163-5.941-.052.071,0,0-.017.02-.027.031-.038.044-.049.057-.058.07-.069.082-.077.094-.086.106-.1.118-.1.129-.112.141-.119.152-.126.164-.134.175-.14.186-.147.2-.153.208-.159.218-.164.228-.168.239-.173.248-.178.259-.182.267-.185.278-.188.288-.191.3-.194.305-.2.315-.2.323-.2.332-.2.34-.74-.433.2-.347.2-.338.2-.329.2-.32.2-.311.2-.3.192-.292.188-.283.185-.273.18-.263.177-.253.172-.243.167-.233.162-.222.156-.212.15-.2.144-.19.137-.179.13-.167.122-.156.115-.145.107-.133.1-.121.089-.109.08-.1.071-.085.061-.073.052-.06.04-.047.029-.034.018-.02.008-.01-.051.071.744.427Zm-.118-1.519.744.427-.626,1.091-.744-.427Zm.744.427-.744-.427a.429.429,0,0,1,.744.427Z" transform="translate(-61.124 -36.414)"/>
      </g>
      <g id="Group_37" data-name="Group 37" transform="translate(35.168 19.895)">
        <path id="Path_47" data-name="Path 47" d="M94.312,39.972l-.85-.115a.429.429,0,1,1,.85.115Zm-2.09,3.341.021-.037h0l.008-.013.013-.02.017-.029.022-.037.026-.046.031-.055.034-.061.037-.07.04-.076.043-.083.045-.09.047-.1.049-.1.05-.109.051-.115.052-.121.052-.126.053-.13.052-.135.052-.14.051-.144.05-.149.049-.152.046-.155.044-.159L93.3,40.7l.039-.165.037-.167.033-.17.029-.171.026-.173.85.115-.029.194-.033.191-.037.188-.04.184-.043.182-.046.178-.049.173-.05.17-.053.165-.054.161-.055.157-.056.151-.056.146-.056.141-.057.135-.056.129-.056.124-.054.118-.053.112-.052.1-.049.1-.047.091-.044.083-.041.076-.037.068-.034.06-.029.051-.026.044-.02.035-.016.025-.009.016-.005.008.021-.037-.769-.38Zm.021-.037.727.454a.429.429,0,1,1-.728-.454Zm.065,1.8-.769-.38.683-1.383.769.38Zm-.769-.38.769.38a.429.429,0,0,1-.769-.38Z" transform="translate(-91.494 -39.486)"/>
      </g>
      <g id="Group_38" data-name="Group 38" transform="translate(27.132 32.701)">
        <path id="Path_48" data-name="Path 48" d="M78.29,63.315l.458.725a.429.429,0,1,1-.457-.725Zm1.869-.631-.014.024,0,.008,0,.007-.009.013-.01.015-.013.019-.016.023-.017.025-.021.029-.023.032L80,62.913l-.028.037-.031.039-.034.041-.037.043-.039.045-.041.047-.044.049-.047.05-.05.051-.053.053-.055.053-.058.055-.062.056-.063.056-.067.056-.07.057-.071.057-.076.058L79,63.872l-.081.056-.083.057-.086.056-.458-.725.072-.046.07-.047.067-.047.065-.047.062-.047.06-.048.058-.047.055-.047.053-.047.05-.046.048-.046L79,62.756l.043-.043.041-.042.038-.041.037-.04.034-.038.031-.037.029-.034.026-.032.025-.031.022-.028.02-.026.017-.023.014-.02.013-.019.01-.014.008-.013.007-.01,0,0,0,0,0,0-.013.024.758.4Zm-.12-1.609.758.4-.638,1.208-.758-.4Zm.758.4-.758-.4a.429.429,0,1,1,.758.4Z" transform="translate(-78.09 -60.847)"/>
      </g>
      <g id="Group_39" data-name="Group 39" transform="translate(18.638 31.229)">
        <path id="Path_49" data-name="Path 49" d="M64.4,58.393l-.1.852a.429.429,0,1,1,.1-.852Zm2.04.228.027,0-.122.848-2.04-.228.1-.852Zm-.1.853.1-.853a.429.429,0,1,1-.1.853Zm6.663-.156.124-.016-.013,0-.029.008-.044.011-.061.016-.077.018-.092.022-.107.023-.121.025-.135.026-.149.028-.162.028-.175.028-.188.028-.2.026-.212.026-.224.025-.234.022-.245.02-.255.017-.266.014-.275.01-.284.007h-.293l-.3,0-.309-.009L68.36,59.7l-.325-.021-.331-.028-.338-.035-.344-.043-.35-.05-.355-.059.149-.845.338.056.332.047.327.041.321.033.315.026.309.02.3.014.294.009.287,0h.279l.271-.006.261-.01.253-.013.243-.017.233-.019.223-.022.212-.023.2-.025.189-.025.177-.026L72,58.662l.153-.026.14-.026.126-.025.112-.023.1-.021.084-.019.068-.016.054-.013.038-.01.021-.005h0l.124-.016-.017.858Zm1.684-.826-.017.858-1.667-.032.017-.857Zm-.017.858.017-.858a.429.429,0,0,1-.017.858Z" transform="translate(-63.922 -58.39)"/>
      </g>
      <g id="Group_40" data-name="Group 40" transform="translate(14.301 33.008)">
        <path id="Path_50" data-name="Path 50" d="M58.56,66.121l.516-.685a.429.429,0,0,1-.516.685Zm-.728-2.773,0,.026v-.005l0,.009,0,.016,0,.02,0,.027.007.035.008.04.01.046.012.051.015.055.017.061.02.065.022.068.026.071.028.075.031.078.035.08.037.082.042.084.045.086.049.086.053.088.057.088.061.088.066.088.069.088.074.086.079.085.084.084.089.082.094.08.1.079-.516.685-.127-.1-.121-.1-.113-.106-.107-.107-.1-.109-.095-.11-.089-.111-.083-.111-.077-.11-.071-.11-.066-.109-.061-.108-.056-.107-.052-.1-.047-.1-.043-.1-.038-.1-.035-.094-.031-.089-.028-.085-.025-.08-.022-.076-.019-.071-.016-.065-.014-.059-.011-.053L57,63.6,57,63.558l-.005-.034,0-.023,0-.016,0-.013,0,.026.845-.151ZM56.7,61.863l.844-.151.293,1.636-.844.151Zm.844-.151-.844.151a.429.429,0,0,1,.844-.151Z" transform="translate(-56.689 -61.359)"/>
      </g>
      <g id="Group_41" data-name="Group 41" transform="translate(3.846 29.131)">
        <path id="Path_51" data-name="Path 51" d="M39.9,54.955l-.451.73a.429.429,0,1,1,.451-.73Zm3.839,1.888-.1,0-.238-.018-.232-.022-.226-.026-.22-.03-.214-.034-.207-.037-.2-.04-.195-.042-.188-.044-.182-.046-.174-.048-.167-.049-.161-.049-.153-.05-.146-.05-.14-.05-.131-.05-.124-.049-.116-.048-.109-.047-.1-.044-.094-.043-.085-.04-.077-.038-.069-.035-.059-.031-.052-.028-.044-.025-.035-.02-.026-.015-.015-.009-.01-.006.451-.73h0l.012.007.018.011.026.014.035.019.044.023.052.027.059.03.068.034.075.036.082.038.091.041.1.042.1.043.113.044.12.046.127.046.134.046.141.046.147.046.154.044.16.043.167.043.173.041.18.038.185.037.192.034.2.031.2.028.209.025.214.02.221.017-.1,0,.142.846Zm-.1,0,.055-.856a.429.429,0,0,1-.055.856Zm1.815-1.162.141.846-1.858.312L43.6,56Zm.141.846-.141-.846a.429.429,0,0,1,.141.846Z" transform="translate(-39.25 -54.891)"/>
      </g>
    </g>
  </g>
</svg>
