<svg id="SETA" xmlns="http://www.w3.org/2000/svg" version="1.1" width="70.891" height="37.557" viewBox="0 0 70.891 37.557">
  <path id="Path_55" data-name="Path 55" d="M0,7.782c.1,3.208,1.2,2.9,4.716,2.748s28.1-.351,32.912-.455c2.408-.051,7.8,1.256,8.126-3.211.526-7.2-8.99-6.742-12.138-6.853-2.71-.1-13.364.469-14.97.469A109.907,109.907,0,0,0,7.385,1.867C5.271,2.243-.141,3.192,0,7.782Z" transform="matrix(-0.766, 0.643, -0.643, -0.766, 70.891, 8.132)" fill="#70ecf4" fill-rule="evenodd"/>
  <path id="Path_56" data-name="Path 56" d="M0,2.835C.1-.373,1.207-.067,4.719.086S32.82.438,37.63.541c2.408.051,7.8-1.256,8.126,3.211.526,7.2-8.99,6.742-12.138,6.853-2.71.1-13.364-.469-14.97-.469A109.907,109.907,0,0,1,7.385,8.749C5.271,8.373-.141,7.424,0,2.835Z" transform="translate(6.824 0) rotate(40)" fill="#70ecf4" fill-rule="evenodd"/>
</svg>
