<svg xmlns="http://www.w3.org/2000/svg" version="1.1" width="54" height="54.583" viewBox="0 0 54 54.583">
  <g id="Group_53" data-name="Group 53" transform="translate(-92.174 -89.867)">
    <path id="Path_70" data-name="Path 70" d="M119.569,89.867a26.6,26.6,0,0,0-26.6,26.6,30.684,30.684,0,0,0,3.861,13.811L92.174,144.45l14.578-4.659a26.969,26.969,0,0,0,12.817,3.286,26.6,26.6,0,1,0,0-53.21Zm0,48.953a24.426,24.426,0,0,1-12.316-3.7l-8.4,2.742,2.726-8.135s-4.355-6.029-4.355-13.257a22.348,22.348,0,1,1,22.348,22.348Z" transform="translate(0)" fill="#75cbdb"/>
    <path id="Path_71" data-name="Path 71" d="M234.04,222.891s-4.359-2.111-5.255-2.521a1.045,1.045,0,0,0-1.352.258s-1.321,1.671-1.747,2.217-.668,1.033-1.777.668a17.15,17.15,0,0,1-5.149-3.189,21.279,21.279,0,0,1-3.6-4.435.82.82,0,0,1,.061-1.063s1.151-1.325,1.7-2.035a1.75,1.75,0,0,0,.076-1.822c-.131-.32-1.9-4.472-2.157-5.058a1.191,1.191,0,0,0-.82-.684h-2.1a3.12,3.12,0,0,0-1.094.456c-2.154,1.379-2.518,4.6-2.582,5.292a8.758,8.758,0,0,0,1.01,4.651c1.136,2.483,3.914,5.851,7.345,9.049s8.69,4.575,10.281,5.02a7.953,7.953,0,0,0,6.531-2.05,4.766,4.766,0,0,0,1.185-4.07A.708.708,0,0,0,234.04,222.891Z" transform="translate(-101.394 -100.793)" fill="#75cbdb"/>
  </g>
</svg>
